<?xml version="1.0" encoding="utf-8"?>
<!-- Generator: Adobe Illustrator 25.4.1, SVG Export Plug-In . SVG Version: 6.00 Build 0)  -->
<svg version="1.1" id="Camada_1" xmlns="http://www.w3.org/2000/svg" xmlns:xlink="http://www.w3.org/1999/xlink" x="0px" y="0px"
	 viewBox="0 0 1912.9 259.6" style="enable-background:new 0 0 1912.9 259.6;" xml:space="preserve">
<style type="text/css">
	.st0{fill:#ededed;}
</style>
<path class="st0" d="M484.6,46.8c31.5-1,63-0.9,94.3,0.5c105.9,4.9,207.2,27.6,308.1,59.2c100.5,31.5,199.4,68.8,301.7,94.2
	c98,24.3,199.2,35.4,300.1,33.4c73-1.5,145.9-9.8,217.3-24.9c36.2-7.7,72.1-17.1,107.4-28.3c32-10.1,66.2-28.6,99.3-33.6
	c0,7.5,0,105.9,0,112.3c-631.5,0-1906.1,0.2-1912.9,0.2c0-35.6,0-102.4,0-108.5c38.3-23.1,81.7-36.9,124.6-48.8
	c46.5-12.9,93.8-23.1,141.3-31.7C337.5,57.9,411,49.2,484.6,46.8z"/>
</svg>
